<svg width="29" height="27" viewBox="0 0 29 27" fill="none" xmlns="http://www.w3.org/2000/svg">
<g clip-path="url(#clip0_12_67)">
<path d="M28.7356 21.6913C28.7355 21.6912 28.7354 21.6911 28.7353 21.691L19.9377 13.5001L28.7353 5.30909C28.7354 5.30899 28.7355 5.30894 28.7356 5.30883C28.8303 5.22061 28.8988 5.11756 28.9427 5.00782C29.0629 4.70787 28.9943 4.35703 28.7353 4.11582L24.5794 0.24654C24.3203 0.00538519 23.9436 -0.0584234 23.6213 0.0535317C23.5035 0.0944008 23.3928 0.158157 23.298 0.246276C23.298 0.246381 23.2979 0.246434 23.2978 0.24654L14.5001 8.43756L5.70245 0.246592C5.70234 0.246487 5.70228 0.246434 5.70217 0.246329C5.60741 0.158209 5.49673 0.0944536 5.37892 0.0535844C5.05664 -0.0584234 4.67992 0.00543794 4.42085 0.246592L0.264897 4.11593C0.00582297 4.35713 -0.0627122 4.70792 0.0575358 5.00787C0.101489 5.11756 0.169967 5.22071 0.264614 5.30888C0.264727 5.30894 0.264784 5.30904 0.264897 5.30915L9.0626 13.5001L0.264897 21.6911C0.264841 21.6912 0.264727 21.6912 0.264671 21.6913C0.170024 21.7796 0.101546 21.8826 0.0575358 21.9923C-0.0627689 22.2923 0.00582297 22.6431 0.264897 22.8843L4.42085 26.7536C4.67998 26.9948 5.05669 27.0586 5.37892 26.9466C5.49673 26.9057 5.60747 26.842 5.70223 26.7538C5.70228 26.7537 5.7024 26.7537 5.70251 26.7536L14.5002 18.5626L23.2978 26.7536C23.2979 26.7536 23.298 26.7537 23.2981 26.7538C23.393 26.842 23.5036 26.9057 23.6214 26.9466C23.9436 27.0586 24.3205 26.9948 24.5794 26.7536L28.7353 22.8843C28.9944 22.643 29.063 22.2922 28.9427 21.9923C28.8988 21.8826 28.8303 21.7795 28.7356 21.6913Z" fill="white"/>
</g>
<defs>
<clipPath id="clip0_12_67">
<rect width="29" height="27" fill="white"/>
</clipPath>
</defs>
</svg>
